<?xml version="1.0" encoding="utf-8"?>
<!-- Generator: Adobe Illustrator 23.0.3, SVG Export Plug-In . SVG Version: 6.00 Build 0)  -->
<svg version="1.1"
	 id="logosvg.com" xmlns:cc="http://creativecommons.org/ns#" xmlns:dc="http://purl.org/dc/elements/1.1/" xmlns:rdf="http://www.w3.org/1999/02/22-rdf-syntax-ns#"
	 xmlns="http://www.w3.org/2000/svg" xmlns:xlink="http://www.w3.org/1999/xlink" x="0px" y="0px" viewBox="0 0 400 300"
	 style="enable-background:new 0 0 400 300;" xml:space="preserve">
<style type="text/css">
	.st0{fill:#D03027;}
	.st1{fill:#004977;}
</style>
<path id="red" class="st0" d="M266.3,179.7C266.3,179.8,266.3,179.8,266.3,179.7c-15.8,11.2-34.6,23-54.7,35.3l-0.8,0.5
	c-0.3,0.2-0.3,0.6-0.1,0.8c0.2,0.3,0.6,0.3,0.8,0.1l0.7-0.4c17.1-8.9,36.7-19.5,56.4-30.3c0.1-0.1,0.2-0.1,0.3-0.2
	C267.8,183.8,266.9,181.9,266.3,179.7z M370,95.8c-24.9-27.5-185.2-2.8-253.3,12.1l-1.6,0.3c-0.3,0.1-0.5,0.4-0.5,0.7
	c0.1,0.3,0.4,0.5,0.7,0.5l1.6-0.3c56.5-10.1,173.9-24,199.1,1.1c7.7,7.7,5.9,17.5-3.1,29.1c4.8,3.1,8.2,8,9.8,14.1
	C357.7,130.2,381.1,108,370,95.8L370,95.8z"/>
<path id="blue" class="st1" d="M103.2,178.2l2.8-15.5c0.4-2.3,0.7-3.7,0.7-5.2c0.1-4.2-3.5-7.4-15-7.4c-7.2,0-14,0.7-21.2,1.7
	l-3,8.1c5.5-1.4,16.2-3.2,21.9-2.1c2.1,0.4,2.6,1.3,2.3,2.9c-0.1,0.9-0.6,1.4-1.7,1.8c-0.8,0.3-2.4,0.9-5.2,1.2
	c-5.2,0.4-9.1,0.9-11.9,1.3c-2.8,0.4-4.7,1-6.3,1.8c-1.6,0.8-3.1,1.6-4.2,2.9c-1.1,1.3-1.8,3.2-1.9,4.6c-0.1,2.5,0.9,3.7,2.9,5.5
	c2,1.8,5,2.3,10.1,2.3c3,0,5.1-0.3,7.6-0.9c2.5-0.7,5.3-1.9,7.6-3.2l0.1,3.9l15.8,0l0.1-0.6C103.5,180.6,103,179.5,103.2,178.2z
	 M89.6,171.2c-0.3,0.8-0.8,1.5-1.4,2c-0.8,0.7-1.9,1.3-3.2,1.7c-1.3,0.4-2.6,0.6-3.9,0.6c-1.8,0-3-0.3-3.8-0.8
	c-0.7-0.5-1-1.2-0.9-2.1c0.1-0.8,0.6-1.5,1.3-2c0.8-0.6,2.1-1,4.1-1.3c2.8-0.5,4.8-0.8,5.9-1c1.1-0.2,1.9-0.5,2.6-0.7
	C90.1,169.5,89.8,170.7,89.6,171.2z M175.1,143.8c-0.5,2.6-4.5,4.6-9,4.6c-4.5,0-7.7-2.1-7.3-4.6c0.5-2.6,4.5-4.6,8.9-4.6
	C172.3,139.2,175.6,141.3,175.1,143.8z M158,151h15.1l-5.5,31h-15.1L158,151z M242.5,162.7c0.4-2.3,0.7-3.6,0.8-5.2
	c0.1-4.2-3.5-7.4-14.9-7.4c-7.2,0-13.9,0.7-21.2,1.7l-3,8.1c5.5-1.4,16.1-3.2,21.9-2.1c2.1,0.4,2.6,1.4,2.3,2.9
	c-0.2,0.9-0.6,1.4-1.7,1.8c-0.8,0.3-2.4,0.9-5.2,1.2c-5.2,0.4-9.1,0.9-11.9,1.3c-2.8,0.5-4.7,1-6.3,1.8c-1.6,0.8-3.1,1.6-4.2,2.9
	c-1.1,1.3-1.8,3.1-1.9,4.6c-0.1,2.5,0.9,3.7,2.9,5.5c2,1.8,4.9,2.3,10,2.3c3.1,0,5.1-0.3,7.6-0.9c2.5-0.7,5.3-1.8,7.6-3.2l0.1,4
	l15.8,0l0.1-0.5c-1.3-0.8-1.8-1.8-1.5-3.2L242.5,162.7z M226.1,171.3c-0.3,0.8-0.8,1.5-1.3,2c-0.8,0.7-1.9,1.3-3.2,1.7
	c-1.3,0.4-2.6,0.6-3.9,0.6c-1.8,0-3-0.3-3.8-0.8c-0.7-0.5-1-1.2-0.9-2.1c0.2-0.8,0.6-1.5,1.3-2c0.8-0.6,2.1-1,4.1-1.3
	c2.8-0.5,4.8-0.8,5.9-1c1.1-0.3,1.9-0.5,2.6-0.7C226.6,169.6,226.3,170.8,226.1,171.3z M45.9,172.2c4.9,0,7.6-0.4,12.6-1.4l-2,11.1
	c-4.9,0.5-10.2,0.7-15.3,0.7c-8.8,0-28.6-4-26.6-20.3c2.1-16,18.7-23.9,36-24c5.1,0,9,0.3,15,2.5l-1.9,10.7
	c-4.4-2.5-7.6-3.2-11.8-3.2c-13.2,0-18.4,9.2-18.6,13.6C33,168.6,38.7,172.2,45.9,172.2z M203,157l-7.5,0l-4.6,24.9
	c0,0-15.2-0.1-15.3,0l4.6-24.8h-5.7l1.2-6.3h5.9v0l1.1-6.3l15.8-3.5l-1.7,9.7h7.8L203,157z M250.9,138.8l15,0.4l-7.4,42.8l-15.4,0
	L250.9,138.8z M152.3,158.1c-1-2.6-2.8-4.5-5.4-5.9c-2.6-1.3-4.7-1.5-8.2-1.5c-3.1,0-6,0.8-8.6,1.8c-2.6,1-4.4,2.3-5.5,3.9l1-5.3
	h-13.3l-7.4,41.5l15,0l2.5-14.2c1,1.1,1.8,1.8,2.5,2.3c0.8,0.5,1.8,0.9,3,1.2c1.3,0.3,2.8,0.5,4.7,0.5c5.2,0,8.9-0.8,12.9-3.8
	c4.1-3,6.6-7,7.5-12.1C153.5,163.4,153.3,160.6,152.3,158.1z M138.2,165.6c-0.3,1.5-0.8,2.9-1.7,4.1c-0.8,1.2-1.7,1.9-3,2.6
	c-1,0.5-2.5,0.8-3.8,0.8c-2,0-3.6-0.6-4.7-1.8c-1.1-1.2-1.4-3.1-0.9-5.8c0.4-2.3,1.4-4.1,3-5.3c1.6-1.2,3.4-1.8,5.4-1.8
	s3.5,0.6,4.6,1.8C138.3,161.3,138.6,163.1,138.2,165.6z M385.5,162.7c-0.2-4.7-4.2-6.6-8.6-6.6c-10.2,0-22.6,12.3-22.1,25.6
	c0,0.3,0,0.6,0.1,0.9c-1.2,1.9-3.7,5.6-5.7,5.6c-0.6,0-1.3-0.4-1.3-1.5c-0.1-1.4,0.5-3.5,0.9-4.9l3.9-14.1c1-3.9,1.5-6.4,1.5-7.7
	c-0.1-2.6-1.6-3.9-4-3.9c-4,0-9.3,2.9-20.5,15.8h-0.2l1.4-6.3c0.8-3.5,1.5-7,2.2-9.5c-3.8,1.4-9.2,2.9-12.6,3.6
	c-0.5-12.7-8.7-21-21.2-21c-18.8,0-31.7,16.9-31.1,33.4c0.4,12.8,8.7,21.2,21.2,21.2c18.9,0,30.8-14.8,31.1-31.5
	c1-0.1,2.6-0.3,3.2-0.3c1.1,0,2.2,0.2,2.2,1.3c0,0.6-1.2,5.4-1.4,6.4l-2.4,10.4c-1,4.3-2,8.7-2.9,12.3h6.1l3.4-16.5
	c10.4-10.8,14.4-14.4,16.9-14.4c1.1,0,1.9,0.6,1.9,1.9c0.1,1.9-1.1,6.2-1.5,7.5l-3.5,12c-0.8,2.7-1.4,5.1-1.3,6.9
	c0.1,2.6,1.7,3.8,4.1,3.8c4.1,0,7.2-4,9.8-8.2c1.3,5.4,5.6,8.2,10.6,8.2c7.2,0,13.4-5,16.4-11.1l-1.2-0.8c-2.4,3.7-7.1,7.5-11.9,7.5
	c-5.5,0-8.1-3.7-8.3-8.1c-0.1-1.7,0.1-2.8,0.4-3.9C371.1,176.5,385.9,173.3,385.5,162.7z M375.8,157.9c2.6,0,3.8,1.7,3.9,4.2
	c0.3,6.8-7.7,12.9-17.9,12.9C363,170,369.6,157.9,375.8,157.9z M290.8,190.1c-8,0-14.1-7.9-14.4-17.6c-0.5-12.8,8.1-31.7,21.4-31.7
	c8,0,14.2,7.9,14.6,17.6C312.8,171.1,306.2,190.1,290.8,190.1z"/>
</svg>
