<?xml version="1.0" encoding="utf-8"?>
<!-- Generator: Adobe Illustrator 23.0.3, SVG Export Plug-In . SVG Version: 6.00 Build 0)  -->
<svg version="1.1" id="logosvg.com" xmlns="http://www.w3.org/2000/svg" xmlns:xlink="http://www.w3.org/1999/xlink" x="0px"
	 y="0px" viewBox="0 0 400 300" style="enable-background:new 0 0 400 300;" xml:space="preserve">
<path id="logo" d="M77.9897,173.9026v3.7355c-5.86,8.0437-16.5793,13.2789-29.9167,13.2789
	c-23.8734,0-40.3283-17.3252-40.3283-39.3892c0-22.0658,18.2623-39.3304,40.3283-39.3304c5.6109,0,10.6583,0.9352,15.0831,2.4956
	v-5.6098c0,0,10.0353,10.0332,14.6483,15.2067v3.9259c-4.2997-4.5471-13.2159-8.3527-21.5044-8.3527
	c-18.7619,0-30.5421,14.151-30.5421,31.6648c0,17.4499,11.1569,31.6009,30.5421,31.6009
	C65.9603,183.1287,73.6889,178.5753,77.9897,173.9026z M78.7375,151.5277c0,12.5908-7.7295,22.8106-20.9421,22.8106
	c-13.215,0-20.9433-10.2198-20.9433-22.8106c0-12.5907,7.7283-22.8125,20.9433-22.8125
	C71.008,128.7152,78.7375,138.937,78.7375,151.5277z M63.2794,151.4041c0-12.7173-1.1823-18.3271-5.4841-18.3271
	c-4.3011,0-5.4854,5.6098-5.4854,18.3271c0,12.7144,1.1843,18.3203,5.4854,18.3203
	C62.0972,169.7244,63.2794,164.1185,63.2794,151.4041z M121.3717,145.2917c0-1.617-0.1245-4.7975-0.5602-6.7306
	c-1.1844-4.9228-4.9238-8.6615-11.0322-8.6615c-5.7976,0-9.4125,3.6767-10.9719,7.1662H98.622V130.71H82.2288v3.8004h3.8655v33.9058
	h-3.8655v3.928h20.8176v-3.928h-3.8022v-24.618c0-3.7386,1.3088-6.6687,4.5509-6.6687c3.2401,0,4.4247,2.93,4.4247,6.6687
	l0.0001,28.546h18.1367v-3.928h-4.9849V145.2917z M143.999,119.4923h-2.4317c-4.5481,3.8003-10.2837,8.2888-15.2107,12.2147v2.8035
	h4.4266v28.4236c0,6.7272,3.8025,9.9077,10.2856,9.9077c5.547,0,8.0407-1.5572,8.0407-1.5572v-3.8003
	c0,0-1.1856,0.4345-2.4306,0.4345c-1.3101,0-2.6798-0.4994-2.6798-2.616v-30.7924h5.1104v-3.8003h-5.1104L143.999,119.4923
	L143.999,119.4923z M171.4574,119.6758c0-8.1734-16.0832-8.1734-16.0832,0S171.4574,127.8491,171.4574,119.6758z M169.897,130.7101
	h-16.9542v3.8004h3.8044v33.9058h-3.8043v3.928h20.8194v-3.928h-3.8653V130.7101z M216.2399,145.2917
	c0-1.617-0.1245-4.7975-0.5602-6.7306c-1.1844-4.9228-4.9238-8.6615-11.0323-8.6615c-5.7976,0-9.4125,3.6767-10.9719,7.1662h-0.1853
	V130.71H177.097v3.8004h3.8655v33.9058h-3.8655v3.928h20.8177v-3.928h-3.8022v-24.618c0-3.7386,1.3088-6.6687,4.5509-6.6687
	c3.2401,0,4.4247,2.93,4.4247,6.6687l0.0001,28.546h18.1367v-3.928H216.24v-23.1245L216.2399,145.2917L216.2399,145.2917z
	 M258.4333,150.3402c0,0.7499-0.0607,2.2464-0.1239,2.9952h-22.2501c0.2478,9.6583,6.1063,11.777,9.9108,11.777
	c4.3609,0,7.2902-1.6808,9.1622-3.8623l2.1805,2.0577c-2.9899,5.9827-8.1022,9.7831-16.2045,9.7831
	c-12.5917,0-19.0121-9.4719-19.0121-21.5012c0-12.0275,6.4204-21.6901,19.0121-21.6901
	C253.6375,129.8996,258.4333,138.6261,258.4333,150.3402z M245.3453,149.2805c-0.1239-11.0902-0.8727-15.0813-4.6747-15.0813
	c-3.7386,0-4.6113,4.1115-4.6113,15.0813H245.3453z M300.3195,145.2917c0-1.617-0.1245-4.7975-0.5602-6.7306
	c-1.1844-4.9228-4.9238-8.6615-11.0323-8.6615c-5.7976,0-9.4126,3.6767-10.9719,7.1662h-0.1853V130.71h-16.3932v3.8004h3.8655
	v33.9058h-3.8655v3.928h20.8177v-3.928h-3.8022v-24.618c0-3.7386,1.3088-6.6687,4.551-6.6687c3.2401,0,4.4247,2.93,4.4247,6.6687
	l0.0001,28.546h18.1368v-3.928h-4.985v-23.1245L300.3195,145.2917L300.3195,145.2917z M322.946,119.4923h-2.4317
	c-4.5481,3.8003-10.2837,8.2888-15.2107,12.2147v2.8035h4.4266v28.4236c0,6.7272,3.8025,9.9077,10.2856,9.9077
	c5.5471,0,8.0407-1.5572,8.0407-1.5572v-3.8003c0,0-1.1856,0.4345-2.4306,0.4345c-1.3101,0-2.6798-0.4994-2.6798-2.616v-30.7924
	h5.1104v-3.8003h-5.1104v-11.2178C322.9461,119.4923,322.946,119.4923,322.946,119.4923z M365.1435,168.4164h4.237v3.928h-16.8268
	v-4.9901h-0.1898c-2.4283,3.4328-5.6712,5.7367-10.657,5.7367c-6.7945,0-11.034-5.7984-11.034-12.7162
	c0-8.3474,5.9243-13.6496,15.3976-13.6496c3.8652,0,5.9191,0.8785,5.9191,0.8785v-2.621c0-5.0488-3.1137-7.7294-7.6645-7.7294
	c-6.2962,0-9.5365,4.8642-9.5365,4.8642l-2.3044-2.8045c4.1738-6.4834,10.5911-9.4134,16.5762-9.4134
	c10.1007,0,16.0831,5.9837,16.0831,15.083V168.4164z M351.9896,151.7131c-0.3717-0.3739-1.1838-0.8703-2.866-0.8703
	c-3.9258,0-4.7986,3.8655-4.7986,7.8533c0,3.9258,1.1838,7.1032,4.5508,7.1032c1.6189,0,2.6155-0.6868,3.1138-1.2463V151.7131z
	 M387.1456,168.4163v-53.1004h-17.7019v3.8004h4.5481v53.228h18.2635v-3.928H387.1456z"/>
</svg>
