<?xml version="1.0" encoding="utf-8"?>
<!-- Generator: Adobe Illustrator 23.0.3, SVG Export Plug-In . SVG Version: 6.00 Build 0)  -->
<svg version="1.1" id="logosvg.com" xmlns="http://www.w3.org/2000/svg" xmlns:xlink="http://www.w3.org/1999/xlink" x="0px"
	 y="0px" viewBox="0 0 400 300" style="enable-background:new 0 0 400 300;" xml:space="preserve">
<style type="text/css">
	.st0{fill:#656868;}
</style>
<path id="logo" class="st0" d="M30.1,127.1c-9.4,0-9.6,0.6-9.2,3.4H24c2.9,0,3.6,0.4,3.6,2.9v30.7c0,4.4-1.2,4.8-8.2,5.2
	c-0.2,0.8-0.2,1.9,0,2.5h24.4c18.6,0,26.3-9,26.3-22.4c0-13.9-8.1-22.4-26.9-22.4L30.1,127.1z M35.7,163.6v-32.7h6.7
	c12.5,0,19,7.3,19,19.8c0,14-7.1,17.6-18.2,17.6C37.2,168.3,35.7,167.6,35.7,163.6 M99,127.5c-3.1,0-3.9,1-6.1,6.1L80,164.1
	c-1.8,4.2-2.3,4.5-7.3,5.2c-0.2,0.8-0.2,1.9,0,2.5h18.6c1.6,0,2.1-1,1.6-2.9h-5.6c-3.6,0-3.6-1-2.1-4.8l2.7-7.1h16.8l4.1,9.8
	c0.7,1.7,0,2.3-7.1,2.5c-0.2,0.9-0.2,1.9,0,2.5h21.1c1.7,0,2.1-1,1.7-2.9H123c-3.3,0-4-0.6-4.8-2.3l-15-34.3c-1-2.3-1.5-3.4-1.7-4.8
	L99,127.5z M96.1,136.5l7.1,16.9H89.3L96.1,136.5z M131.5,128.4c-2.7,0-3.1,1.2-2.7,2.9h3.1c3,0,3.6,0.4,3.6,2.7v31.1
	c0,2.7-1.3,3.3-6.4,4.2c-0.3,0.8-0.3,1.9,0,2.5h19.8c1.9,0,2.1-1,1.7-2.9H147c-2.7,0-3.4-0.5-3.4-2.7v-30.9c0-2.7,0.8-4,6.5-4.4
	c0.2-0.6,0.2-1.9,0-2.5L131.5,128.4z M209.6,128.4l-15,31.3l-16.3-31.3h-13.1c-2.7,0-3.1,1.4-2.7,2.9c6.4,0.2,6.8,0.9,6.6,3
	l-2.7,30.6c-0.2,2.7-0.8,4-7.9,4.4c-0.2,0.8-0.2,1.7,0,2.5h21.3c1.8,0,2.1-1,1.6-2.9h-3.5c-6.9,0-6.9-0.7-6.7-3.2l2.1-29.2l18,35.5
	c1.5,0,2-0.4,3.2-2.7l15.6-32.8l2.9,28.4c0.3,3.2-0.6,3.9-6,4.2l-3.5,0.2c-0.3,0.8-0.3,1.7,0,2.5h23c1.8,0,2-1,1.8-2.9
	c-5-0.7-6.1-0.8-6.2-2.9l-3.1-31.7c-0.2-1.9,0.2-2.9,6.2-3.3c0.3-0.8,0.3-1.7,0-2.5L209.6,128.4z M240.7,128.4
	c-2.7,0-3.1,1.2-2.7,2.9h3.1c2.7,0,3.6,0.4,3.6,2.7v29.8c0,4.2-1.4,5.1-7.7,5.5c-0.2,0.8-0.1,1.7,0,2.5h31.7c0.8-4,2-7.8,3.4-11.7
	c0.7-1.9-0.2-2.7-1.9-2.7l-0.2,0l-1.8,4c-2.7,5.9-3.4,6.2-8.2,6.2h-4.2c-1.8,0-2.9-0.6-2.9-2.7v-28.7c0-4.2,1.3-4.8,8.1-5.2
	c0.2-0.6,0.2-1.9,0-2.5L240.7,128.4z M282.9,128.4c-2.9,0-3.1,1.2-2.9,2.9h3.1c2.9,0,3.5,0.4,3.5,2.7v30c0,4.4-1.3,4.8-8.1,5.2
	c-0.3,0.8-0.3,1.7,0,2.5h35.9c0.8-4,2.1-8,3.4-11.7c0.6-1.9-0.2-2.7-1.9-2.7l-0.2,0l-1.8,4c-2.7,5.9-3.4,6.2-8.2,6.2H300
	c-4.4,0-5-1-5-3.3v-11.4h6.8c1.7,0,2.5,0.6,3.4,5.7c0.3,0.2,0.7,0.2,1.1,0.2c0.4,0,0.8-0.1,1.2-0.2c-0.2-4.2-0.2-8.7,0-12.8
	c0.1-2-0.6-2.5-1.9-2.5h-0.8l-0.4,3.3c-0.2,1.7-0.6,2.3-2.5,2.3H295v-16.7h10.4c3.6,0,4.9,1,6,5l0.9,2.9c0.2,0,0.3,0,0.4,0
	c1.7,0,2.4-1.1,2.1-2.9c-0.4-2.8-0.8-5.8-1-8.8L282.9,128.4z M329.4,128.2c-2.7,0.2-3.1,1.4-2.7,3.1h3.1c2.7,0,3.6,0.4,3.6,2.9v30
	c0,4-1.3,4.6-7,5c-0.2,0.9-0.1,1.8,0,2.6H347c1.9,0,2.1-1,1.9-2.9h-3.3c-3.4,0-4-0.6-4-2.5v-9.6h4.4c4,0,4.1,0.2,5.7,3.1
	c1.7,3,4,5.6,6.2,7.5c4.8,4.2,8.8,5.5,14.8,5.5c6.9,0,8.5-1.7,8-4c-5.7,0-8.5-0.6-17.1-7.5c-2.5-2-7.3-6.5-7.3-6.5
	c5.4-2.3,8.8-6.7,8.8-12.1c0-8.9-6.9-14.8-19.4-14.8c-9.1,0-13,0-16.1,0.3 M341.7,131.8h2.2c7.3,0,12.5,2.7,12.5,11.5
	c0,8.8-5.2,9.8-11.6,9.8h-3.1L341.7,131.8z"/>
</svg>
