<?xml version="1.0" encoding="utf-8"?>
<!-- Generator: Adobe Illustrator 23.0.3, SVG Export Plug-In . SVG Version: 6.00 Build 0)  -->
<svg version="1.1" id="logosvg.com" xmlns="http://www.w3.org/2000/svg" xmlns:xlink="http://www.w3.org/1999/xlink" x="0px"
	 y="0px" viewBox="0 0 400 300" style="enable-background:new 0 0 400 300;" xml:space="preserve">
<style type="text/css">
	.st0{fill:#1CE783;}
</style>
<path id="logo" class="st0" d="M231.8,196.2h22.5v-93.1h-22.5C231.8,103.2,231.8,196.2,231.8,196.2z M192.3,169.7c0,3.3-2.7,6-6,6
	h-13.1c-3.3,0-6-2.7-6-6v-37.5h-22.5v39.3c0,16.1,10.3,24.6,25.5,24.6h22c14,0,22.5-10.1,22.5-24.6v-39.3h-22.5
	C192.3,132.2,192.3,168.5,192.3,169.7z M318.7,132.2v37.5c0,3.3-2.7,6-6,6h-13.1c-3.3,0-6-2.7-6-6v-37.5h-22.5v39.3
	c0,16.1,10.3,24.6,25.5,24.6h22c14,0,22.5-10.1,22.5-24.6v-39.3H318.7L318.7,132.2z M103.3,132.2H88.9c-5.1,0-7.6,1.3-7.6,1.3v-30.3
	H58.9v92.9h22.3v-37.4c0-3.3,2.7-6,6-6h13.1c3.3,0,6,2.7,6,6v37.5h22.5v-40.5C128.8,138.7,117.4,132.2,103.3,132.2z"/>
</svg>
