<?xml version="1.0" encoding="utf-8"?>
<!-- Generator: Adobe Illustrator 23.0.3, SVG Export Plug-In . SVG Version: 6.00 Build 0)  -->
<svg version="1.1" id="logosvg.com" xmlns="http://www.w3.org/2000/svg" xmlns:xlink="http://www.w3.org/1999/xlink" x="0px"
	 y="0px" viewBox="0 0 400 300" style="enable-background:new 0 0 400 300;" xml:space="preserve">
<style type="text/css">
	.st0{fill:#FB0102;}
</style>
<path id="red" class="st0" d="M22.5,128.7c-3.5,10-7,20.1-10.6,30.1c-0.2,0.8-0.5,1.7-0.6,2.5c-0.2,0.8-0.3,1.6-0.4,2.4
	c-0.1,0.8-0.1,1.7,0,2.5c0.1,0.8,0.2,1.5,0.5,2.4c0.3,0.9,0.7,1.9,1.2,2.8c0.5,0.9,1.2,1.7,2,2.3c0.8,0.6,1.7,1.1,2.8,1.5
	c1.1,0.4,2.3,0.6,3.4,0.8c1.1,0.1,1.9,0.1,2.8,0.1c8.1,0,16.2,0,24.3,0c0.2,0,0.4,0,0.6-0.1c0.2-0.1,0.4-0.2,0.6-0.3
	c0.2-0.1,0.4-0.3,0.6-0.5c0.2-0.2,0.3-0.5,0.5-0.7c0.1-0.3,0.2-0.5,0.3-0.8c0.9-2.7,1.7-5.3,2.4-7.3c0.6-2,1-3.3,1.3-4
	c0.2-0.7,0.3-0.9,0.3-1.1c0-0.2,0-0.3,0-0.5c0-0.2-0.1-0.3-0.2-0.4c-0.1-0.1-0.2-0.2-0.4-0.3c-0.1-0.1-0.3-0.1-0.4-0.1
	c-0.1,0-0.3,0-0.5,0c-5.9,0-11.8,0-17.7,0c-0.3,0-0.6,0-0.8-0.1c-0.3-0.1-0.5-0.2-0.7-0.3c-0.2-0.1-0.4-0.3-0.5-0.4
	c-0.2-0.2-0.3-0.4-0.4-0.7c-0.1-0.3-0.2-0.6-0.2-0.9c0-0.3,0-0.7,0.1-1.1c0.1-0.4,0.2-0.9,0.4-1.4c3-8.7,5.9-17.4,8.9-26.1
	c0-0.2,0.1-0.3,0.1-0.5c0-0.2-0.1-0.4-0.1-0.6c-0.1-0.2-0.2-0.3-0.3-0.4c-0.1-0.1-0.2-0.1-0.4-0.2c-0.1,0-0.3,0-0.5,0
	c-5.4,0-10.7,0-16.1,0c-0.1,0-0.3,0-0.4,0c-0.1,0-0.3,0.1-0.4,0.1c-0.1,0.1-0.3,0.1-0.4,0.2c-0.1,0.1-0.2,0.2-0.3,0.3
	c-0.1,0.1-0.2,0.2-0.3,0.4S22.5,128.5,22.5,128.7z M67.5,140.9c-0.1,0-0.3,0-0.4,0.1c-0.1,0-0.3,0.1-0.4,0.2
	c-0.1,0.1-0.2,0.1-0.3,0.2c-0.1,0.1-0.2,0.2-0.3,0.3c-0.1,0.1-0.1,0.2-0.2,0.3c-3.3,10.8-6.7,21.7-10,32.5c0,0.1,0,0.2-0.1,0.3
	c0,0.1,0,0.2,0,0.3c0,0.1,0.1,0.2,0.2,0.3c0.1,0.1,0.2,0.2,0.3,0.2c0.1,0.1,0.2,0.1,0.3,0.1s0.2,0,0.3,0c5.1,0,10.2,0,15.3,0
	c0.1,0,0.3,0,0.4,0c0.1,0,0.3-0.1,0.4-0.2c0.1-0.1,0.2-0.1,0.3-0.3c0.1-0.1,0.2-0.4,0.3-0.6c3.4-10.8,6.9-21.7,10.3-32.5
	c0-0.1,0-0.2,0.1-0.3c0-0.1,0-0.2,0-0.3s0-0.2-0.1-0.2c0-0.1-0.1-0.1-0.2-0.2c-0.1-0.1-0.2-0.1-0.2-0.1c-0.1,0-0.2,0-0.2,0
	C78,140.9,72.7,140.9,67.5,140.9L67.5,140.9z M113.5,158.6c-3.1,6.5-17.5,7.3-14.4-1.4c0.9-2.6,4.4-5,8.1-5.3
	C111.2,151.6,115.6,154.2,113.5,158.6L113.5,158.6z M129.4,157.2c4.4-15.3-17.7-25.4-38-10.9c-9.7,7-13.1,20.7-3,26.9
	c5.2,3.1,10.3,3.9,17.5,2.7C115,174.5,126.5,167.4,129.4,157.2L129.4,157.2z M77.3,123.7c5.7-0.9,10.5,1.4,10.8,5.2
	c0.2,3.8-4.2,7.6-9.9,8.5s-10.5-1.4-10.8-5.2C67.2,128.4,71.6,124.6,77.3,123.7z M139.2,140.7c-3.5,11.1-7,22.3-10.5,33.4
	c0,0.2-0.1,0.4-0.1,0.6c0,0.2,0.1,0.4,0.1,0.5c0.1,0.1,0.2,0.2,0.3,0.3c0.1,0.1,0.2,0.1,0.3,0.2c0.1,0,0.2,0,0.3,0
	c5.1,0,10.2,0,15.2,0c0.1,0,0.3,0,0.5,0s0.3-0.1,0.5-0.1c0.1-0.1,0.2-0.1,0.3-0.2c0.1-0.1,0.2-0.2,0.3-0.3c0.1-0.1,0.1-0.2,0.2-0.3
	c1.9-6.5,3.8-13,5.8-19.6c0.1-0.3,0.3-0.7,0.5-0.9c0.2-0.2,0.6-0.3,1.1-0.4c0.5-0.1,1.1-0.2,2-0.2c0.8-0.1,1.9-0.1,2.7-0.1
	c0.8,0,1.3,0,1.8,0c0.4,0.1,0.7,0.2,0.9,0.3c0.2,0.1,0.3,0.3,0.4,0.5c0.1,0.2,0.2,0.4,0.3,0.8c0.1,0.4,0.1,0.9,0,1.3
	c-0.1,0.4-0.2,0.8-0.4,1.3c-0.2,0.5-0.4,1.3-1.3,4.1c-0.9,2.8-2.4,7.6-3.9,12.4c0,0.1,0,0.2-0.1,0.3c0,0.1,0,0.2,0,0.4
	c0,0.1,0.1,0.2,0.1,0.3c0.1,0.1,0.2,0.2,0.3,0.3c0.1,0.1,0.2,0.1,0.4,0.1c0.1,0,0.2,0,0.3,0c5.2,0,10.4,0,15.6,0c0.2,0,0.4,0,0.5,0
	c0.2,0,0.3-0.1,0.4-0.2c0.1-0.1,0.2-0.2,0.3-0.3c0.1-0.1,0.1-0.2,0.2-0.3c1.8-5.9,3.6-11.8,5.4-17.7c0.1-0.4,0.2-0.8,0.4-1.5
	c0.1-0.7,0.2-1.6,0.3-2.4c0.1-0.8,0.1-1.3,0-2.1c-0.1-0.7-0.2-1.6-0.3-2.3c-0.1-0.7-0.3-1.2-0.4-1.6c-0.2-0.4-0.4-0.8-0.7-1.3
	c-0.3-0.5-0.7-1.1-1.1-1.7c-0.4-0.6-0.9-1-1.6-1.6c-0.6-0.5-1.4-1-2.1-1.4c-0.7-0.4-1.3-0.6-1.9-0.9c-0.6-0.2-1.2-0.5-2-0.7
	c-0.8-0.2-1.7-0.3-3-0.4s-3.2-0.1-4.8,0c-1.5,0.1-2.7,0.2-3.8,0.3c-1.1,0.1-2,0.3-2.9,0.5c-0.9,0.2-1.7,0.4-2.5,0.6
	c-0.8,0.2-1.7,0.5-2.6,0.6c-0.9,0.1-1.8,0.1-2.5,0.1c-0.7-0.1-1.1-0.2-1.5-0.3c-0.5-0.1-1-0.2-1.5-0.3c-0.5-0.1-0.9-0.2-1.5-0.3
	c-0.5-0.1-1.2-0.1-2-0.1S140,140.6,139.2,140.7L139.2,140.7z M337.5,140.1c-0.1,0-0.2,0-0.3,0c-0.1,0-0.2,0.1-0.3,0.1
	s-0.2,0.1-0.2,0.2c-0.1,0.1-0.1,0.1-0.2,0.2c0,0.1-0.1,0.2-0.1,0.3c-3.4,11.2-6.9,22.4-10.3,33.6c0,0.1,0,0.2,0,0.3
	c0,0.1,0,0.2,0.1,0.3c0,0.1,0.1,0.2,0.2,0.2c0.1,0.1,0.2,0.1,0.3,0.1c0.1,0,0.2,0,0.3,0c5.3,0,10.7,0,16,0c0.1,0,0.3,0,0.4-0.1
	c0.1,0,0.2-0.1,0.3-0.2c0.1-0.1,0.2-0.2,0.2-0.3c0-0.1,0.1-0.2,0.1-0.3c3.5-11.3,7-22.6,10.5-33.9c0-0.1,0-0.1,0-0.2s0-0.1,0-0.2
	c0-0.1-0.1-0.2-0.1-0.2s-0.1-0.1-0.2-0.1c-0.1,0-0.2,0-0.3-0.1c-0.1,0-0.2,0-0.3,0C348.3,140,342.9,140,337.5,140.1L337.5,140.1z
	 M347.7,123.1c5.7-0.9,10.5,1.4,10.8,5.2c0.2,3.8-4.2,7.6-9.9,8.5s-10.5-1.4-10.8-5.2C337.5,127.8,342,124,347.7,123.1z
	 M308.2,155.8c-1.2,3.9-3.5,11.5-5.8,19c0,0.1,0,0.1,0,0.2c0,0.1,0,0.2,0.1,0.3s0.2,0.2,0.2,0.2c0.1,0,0.2,0.1,0.2,0.1
	c0.1,0,0.1,0,0.2,0c5.3,0,10.7,0,16,0c0.1,0,0.2,0,0.3,0s0.2,0,0.2-0.1c0.1,0,0.2-0.1,0.3-0.1c0.1-0.1,0.2-0.1,0.3-0.2
	c0.1-0.1,0.1-0.2,0.2-0.3c3.5-11.3,7.1-22.7,10.6-34c0-0.1,0.1-0.3,0.1-0.4c0-0.1-0.1-0.2-0.2-0.3c-0.1-0.1-0.2-0.1-0.3-0.1
	c-2,0-3.9,0-5.2-0.1c-1.3-0.1-1.9-0.2-2.5-0.3c-0.6-0.1-1.1-0.3-1.7-0.4s-1.2-0.4-1.7-0.6c-0.5-0.2-1-0.3-1.7-0.5
	c-0.7-0.2-1.7-0.4-2.5-0.6c-0.8-0.2-1.5-0.3-2.5-0.4c-1-0.1-2.2-0.2-3.3-0.3c-1.1-0.1-2.2-0.1-3.3,0c-1.1,0.1-2.3,0.2-3.2,0.3
	c-0.9,0.1-1.6,0.3-2.2,0.5c-0.6,0.2-1.3,0.4-1.9,0.6c-0.6,0.2-1.3,0.5-1.9,0.8s-1.3,0.6-2.1,1c-0.7,0.4-1.5,0.9-2.3,1.4
	c-0.8,0.6-1.6,1.3-2.5,2c-0.8,0.7-1.7,1.5-2.5,2.3c-0.8,0.8-1.6,1.7-2.3,2.8c-0.7,1.1-1.4,2.3-2,3.4c-0.6,1.1-1.1,2.2-1.5,3.1
	c-0.4,0.9-0.8,1.8-1.1,3c-0.3,1.2-0.7,2.7-0.8,4c-0.2,1.3-0.2,2.4-0.1,3.2c0.1,0.8,0.2,1.5,0.3,2c0.1,0.6,0.2,1,0.4,1.5
	c0.1,0.4,0.2,0.8,0.4,1.2c0.1,0.4,0.3,0.7,0.5,1.1c0.2,0.4,0.5,0.7,0.7,1.1c0.3,0.4,0.6,0.7,0.9,1c0.3,0.3,0.5,0.6,0.8,0.8
	s0.7,0.5,1.1,0.7s0.9,0.5,1.5,0.7c0.6,0.2,1.2,0.3,1.9,0.4c0.6,0.1,1.3,0.1,1.9,0.1s1.2,0,1.7-0.1c0.5-0.1,1-0.2,1.5-0.4
	s1.2-0.4,1.7-0.7c0.6-0.2,1-0.5,1.6-0.8c0.5-0.3,1.2-0.7,1.7-1.1c0.6-0.4,1-0.7,1.5-1.2c0.5-0.4,1-0.9,1.3-1.3
	c0.4-0.4,0.6-0.8,0.9-1.2c0.2-0.4,0.5-0.8,0.7-1.2c0.2-0.4,0.5-0.9,0.7-1.4s0.3-1,0.4-1.5c-0.2,0.1-0.5,0.3-0.8,0.4
	c-0.3,0.1-0.7,0.2-1.3,0.4c-0.6,0.2-1.4,0.4-2.1,0.5c-0.7,0.1-1.3,0.1-1.8,0.1c-0.5-0.1-0.9-0.2-1.3-0.4c-0.4-0.2-0.8-0.4-1.1-0.7
	c-0.3-0.3-0.6-0.7-0.8-1.1c-0.2-0.4-0.3-0.8-0.3-1.4c0-0.6,0-1.4,0-2.1c0.1-0.7,0.2-1.2,0.3-1.8c0.1-0.6,0.3-1.2,0.4-1.8
	c0.2-0.6,0.4-1.2,0.7-1.9c0.3-0.7,0.7-1.4,1.1-2.2c0.4-0.7,0.9-1.5,1.6-2.3c0.7-0.8,1.6-1.7,2.3-2.3c0.8-0.6,1.4-1,2.1-1.2
	s1.3-0.4,1.9-0.4c0.6-0.1,1.1-0.1,1.7,0c0.5,0.1,1,0.2,1.4,0.4c0.4,0.2,0.6,0.4,0.8,0.7c0.2,0.2,0.4,0.5,0.5,0.8
	c0.1,0.3,0.2,0.7,0.2,1.1c0,0.4,0,0.7,0,1.1C309.5,151.6,309.4,151.9,308.2,155.8L308.2,155.8z M360.3,140.1
	c-3.6,11.4-7.1,22.9-10.7,34.3c0,0.1-0.1,0.3-0.1,0.4c0,0.1,0,0.3,0.1,0.4c0.1,0.1,0.2,0.2,0.3,0.3c0.1,0.1,0.3,0.1,0.5,0.1
	c0.1,0,0.2,0,0.3,0c5,0,9.9,0,14.9,0c0.1,0,0.2,0,0.4,0c0.2,0,0.4-0.1,0.6-0.2c0.2-0.1,0.4-0.3,0.6-0.5c0.1-0.2,0.2-0.4,0.3-0.7
	c1.6-5.5,3.2-11,4.7-16.4c0.2-0.5,0.3-0.9,0.5-1.3c0.2-0.4,0.4-0.7,0.7-1c0.2-0.3,0.5-0.5,0.7-0.7c0.2-0.2,0.5-0.4,0.8-0.5
	c0.3-0.2,0.6-0.3,0.9-0.4c0.3-0.1,0.7-0.2,1.1-0.3c0.4-0.1,0.7-0.1,1.1-0.1s0.7,0,1,0.1c0.3,0.1,0.5,0.1,0.8,0.2
	c0.3,0.1,0.6,0.2,0.9,0.3c2.8-3.4,5.5-6.7,8.3-10.1c-0.1-0.4-0.2-0.7-0.4-1.1s-0.4-0.7-0.8-1.1c-0.3-0.4-0.7-0.7-1.2-1
	c-0.4-0.3-0.9-0.5-1.4-0.7c-0.5-0.2-0.9-0.3-1.6-0.5c-0.6-0.1-1.3-0.3-2.3-0.3c-1,0-2.3,0-3.4,0.1c-1.1,0.1-2.2,0.3-3.2,0.4
	c-1,0.1-2,0.3-2.9,0.4c-1,0.1-1.9,0.2-2.9,0.2c-1,0-1.9,0-2.7-0.1c-0.7-0.1-1.3-0.2-2.2-0.2C363.2,140.1,361.8,140.1,360.3,140.1
	L360.3,140.1z M267.6,125.3c-0.2,0.9-1.1,2.2-1.5,3c-0.3-0.2-0.7-0.8-1-1.1c-0.4-0.4-0.7-0.8-1-1.4c0.7,0,1.3,0,1.9-0.1
	C266.8,125.5,267,125.3,267.6,125.3z M245.6,186.1L245.6,186.1c-0.1-0.6-0.2-1.3-0.3-2.1c0.6,0,1.3-0.1,1.9-0.1h0h0
	c1-0.1,2.8-0.3,5.7-1.9c1.8-0.9,4.2-3.4,5.4-5c1.8-2.6,2.8-5.8,2.8-9.1v0v0v-0.1c0-0.9-0.1-1.7-0.2-2.5c0-0.1,0-0.1,0-0.2l0,0
	c-0.3-1.5-0.7-3-1.4-4.4c-2-4.2-5.9-7.1-10.3-8.3c-0.9-0.2-1.8-0.4-2.8-0.5l-0.2,0l-0.1,0c-2.6-0.2-5.4,0.2-7.9,1.4
	c-0.2,0.1-0.5,0.2-0.7,0.3c-1.9,1-3.6,2.3-5,4l0,0l-0.3-0.1c-5-2.4-12.4-16.4-14.2-22.8c-2.2-7.9-3.5-21.2-1.8-29.4
	c0.3-1.3,0.6-3,0.7-3.7c-5.1-3.2-12.1,1.2-12.9,11.1c-1.3,16.1,8.6,32.9,20.1,42.9c1.7,1.5,2.9,2.4,3.9,3.1l2.5,1.8
	c-0.4,0.7-0.7,1.4-0.9,2.2c-1.8-1-3.3-2-5.3-3.5c-1.7-1.2-3.2-2.4-4.8-3.7c-3.5-3-5.3-5-8.4-8.6c-3.9-4.5-10.6-15.8-10.9-23.6
	c-7.6-1-12.2,13.3,1.9,26.3c9.2,8.4,15.2,11,26.8,15.9c-0.1,0.6-0.2,1.2-0.2,1.8l0,0.2c-1.9,0.2-8.8-2.1-10.8-2.8
	c-18.2-6.6-22.4-14.5-24.5-16.7c-3,2.1-3.5,8.2-0.8,11.7c4.5,6,14.1,9.4,21.7,10.2c4.7,0.5,8.3,0.8,13,0.6l1.7-0.2
	c0.1,0.8,0.3,1.6,0.5,2.4l-0.3,0.1l-0.3,0.1h0c-9.9,2-17.7,1.6-27.2-1.4c-2.7-0.9-6.2-2.9-6.6-3.2c-0.8,0.7-2.5,12.7,14,12.9
	c4.1,0,8.3-0.8,11.8-1.9c3.3-1.1,6.4-2.4,9.8-3.7c0.3,0.6,0.7,1.2,1.1,1.8l-0.5,0.4c-0.1,0.1-0.2,0.2-0.4,0.3
	c-2.3,1.9-7.9,4.3-10.7,5.2c-6.5,2.1-9.3,1.8-15.7,1c0.8,8.5,10.3,7.5,15.8,5.4c5.5-2.2,9.1-6.3,13.2-10.3c0.5,0.5,0.9,0.9,1.5,1.3
	c-0.3,0.8-0.7,1.4-1.2,2.1c-2.4,3.4-8.2,7.9-11.7,9.5c-3.6,1.6-5.6,1.7-6.1,1.8c0.3,2.2,2.7,3.4,5.4,3.4c8.2-0.1,13.5-10.5,15-13.6
	l0.8-1.7c0.5,0.3,1.1,0.6,1.7,0.8l-0.6,2c0,0.1-0.1,0.2-0.1,0.3v0c-0.4,1.1-1,2.6-2.2,4.5c-4.2,7-7.9,8.1-8.4,8.3
	c0.9,1.7,3.8,2.1,6,1.2c5.3-2.2,6.1-10,7.1-14.4l0.2-1.2c0.6,0.2,1.1,0.3,1.8,0.4l0,0.1c1,9.2-3.1,13.6-3.4,14.1
	c2.8,0.5,5.3,0,6.6-2.2c1.3-2.1,0.7-5.6,0.3-8.1c2.9-0.1,6.2-1.1,8.4-1.8c6.9-2.3,11.5-8.2,13.4-15.1c0.2-0.7,0.5-1.3,0.6-2
	c1.1,0,2.3-0.1,2.3-1.5c0-0.3-0.3-1.2-0.4-1.4c-0.4-0.7-2.3-1.9-2.3-3.8c0-0.4,0.2-1.1,0.3-1.5c0.9-0.1,2.2-1,2.2-2
	c0-1.5-2.6-2.3-3.5-3.2c-0.9-0.9-2.1-3.2-2.1-4.7c0-0.9-0.4-3,0.8-3c1.3,0,6.7,2.7,6.7-5.5c-2.1,1-3.6,1.7-5.7,0
	c-2.5-1.9-0.4-8.6,4.2-8.6c1,0,1.7,0.2,2.2,0.8c0.4,0.5,0.8,1.5,0.8,2.4c0.9-0.6,1.6-1.4,2.3-2.4c0.4-0.6,1.2-2.8,1.2-3.6
	c0-0.6-0.3-0.8-0.3-1.3c0.1-0.8,1.2-1.8-0.2-2.7c-1.1-0.7-3.2,0.6-6.9-1.3c-0.5-0.2-1-0.6-1.5-0.7c0-0.9,0.3-1.1,0.3-2
	c0-1.5-4.6-3.3-6.1-4.3c-1.1-0.7-2.1-1.4-3-2.2c-1.2-1.2-1.8-2.2-2-2.9c-0.2-0.1-0.5-0.2-0.8-0.2c-1.4,0-2.4,1-2.7,2.2
	c-0.3-0.3-0.5-0.5-1-0.8c-0.4-0.3-0.9-0.5-1.3-0.7c-3.1-1.3-5.1-1.4-8.4-3.1c-1.2,0.8-2.2,2.1-1.8,3.8c-1.6-0.8-2.9-0.7-4.6-0.4
	c-1,0.1-4.2,0.6-5,0.5c-0.8,0-1.9-0.1-2.6-0.3c-0.1,0.9-0.5,1.7-0.5,2.8c0,1.1,0.3,1.9,0.5,2.2c-1.9,0-2.8,0-4.4,0.3
	c-1.6,0.3-2.7,0.4-4.3,0.3c-0.5,2-0.5,3,0.5,5c0.4,0.7,1.3,2,1.6,2.4c-0.8,0.3-2.3,0.6-3.2,0.7c0,2.4,1,5.7,1.6,7.9
	c1.8,6.5,5,12,9.1,17.2c0.4,0.5,0.8,0.9,1.2,1.3c0.4-0.4,0.7-0.7,1.2-1c3.8-2.9,7.4-4.2,12.6-4.2c2.5,0,5.5,0.9,7.2,1.7
	c2.3,1.1,3.6,2.1,5.3,3.8c2.4,2.4,3.9,5.3,4.8,8.7c1.7,6.8-0.7,14.9-6.4,19.1c-1,0.7-1.9,1.2-3.1,1.8
	C251.5,185.2,248.3,186,245.6,186.1L245.6,186.1z M267.6,125.3L267.6,125.3z M248.9,123.1c0,0.6,0.6,1.8,0.3,1.8
	c-1.3-0.1-2-1.4-2-2.8c0-2.7,5-3.7,5.9-0.2c-0.6-0.3-1.8-0.7-2.5-0.7C249.7,121.2,248.9,122.3,248.9,123.1L248.9,123.1z"/>
</svg>
