<?xml version="1.0" encoding="utf-8"?>
<!-- Generator: Adobe Illustrator 23.0.3, SVG Export Plug-In . SVG Version: 6.00 Build 0)  -->
<svg version="1.1"
	 id="logosvgcom" inkscape:version="0.48.4 r9939" sodipodi:docname="venmo_logo_blue (1).svg" xmlns:cc="http://creativecommons.org/ns#" xmlns:dc="http://purl.org/dc/elements/1.1/" xmlns:inkscape="http://www.inkscape.org/namespaces/inkscape" xmlns:rdf="http://www.w3.org/1999/02/22-rdf-syntax-ns#" xmlns:sodipodi="http://sodipodi.sourceforge.net/DTD/sodipodi-0.dtd" xmlns:svg="http://www.w3.org/2000/svg"
	 xmlns="http://www.w3.org/2000/svg" xmlns:xlink="http://www.w3.org/1999/xlink" x="0px" y="0px" viewBox="0 0 400 300"
	 style="enable-background:new 0 0 400 300;" xml:space="preserve">
<style type="text/css">
	.st0{fill:#3D95CE;}
</style>
<path id="blue" class="st0" d="M141.241,133.449c0-10.537-7.553-18.105-21.06-18.105c-24.533,0-36.433,21.327-36.433,41.413
	c0,15.4969,7.315,27.893,27.756,27.893c8.058,0,16.36-1.737,21.687-4.3391l2.848-19.337c-7.56,3.842-13.377,5.327-19.452,5.327
	c-5.579,0-9.787-2.969-9.787-10.537C119.44,155.64,141.243,150.436,141.241,133.449z M107.295,143.488
	c0.62-7.438,6.314-12.64,10.652-12.64c2.48,0,4.584,1.485,4.584,4.461C122.532,141.506,111.627,143.488,107.295,143.488z
	 M357.159,115.344c-25.651,0-36.8,19.719-36.8,40.793c0,15.993,6.442,28.764,25.896,28.764c26.27,0,37.298-21.571,37.298-42.4
	C383.552,126.753,376.487,115.344,357.159,115.344z M349.473,167.172c-4.084,0-5.821-3.841-5.821-10.047
	c0-8.181,1.857-24.173,10.903-24.173c4.085,0,5.45,3.719,5.45,9.175C360.005,150.307,358.023,167.172,349.473,167.172z
	 M76.789,115.098c2.479,4.093,3.596,8.31,3.596,13.636c0,16.988-14.502,39.057-26.272,54.553H27.23l-10.782-64.469l23.539-2.235
	l5.7,45.874c5.326-8.677,11.899-22.313,11.899-31.61c0-5.089-0.872-8.555-2.234-11.409L76.789,115.098z M314.389,130.226
	c0,2.479-0.375,6.075-0.749,8.425l-7.055,44.6349h-22.927l6.566-41.7809c0.121-1.116,0.375-2.479,0.375-3.343
	c0-3.351-1.86-4.094-4.095-4.094c-2.847,0-5.692,1.24-7.805,2.357l-7.307,46.862h-22.921l6.566-41.781
	c0.121-1.116,0.367-2.479,0.367-3.343c0-3.351-1.861-4.094-4.088-4.094c-2.976,0-5.946,1.362-7.928,2.357l-7.314,46.862h-23.042
	l10.529-66.826h19.706l0.619,5.579c4.585-3.343,10.777-6.695,19.078-6.695c7.187-0.002,11.893,3.097,14.252,7.313
	c6.565-4.706,12.763-7.315,21.31-7.315C310.296,115.344,314.389,121.297,314.389,130.226z M209.172,130.228
	c0,2.479-0.376,6.075-0.75,8.425l-7.063,44.6349h-22.921c0,0,6.941-44.2599,6.941-45.5c0-2.976-1.86-3.719-4.095-3.719
	c-2.97,0-5.946,1.362-7.928,2.357l-7.308,46.862h-23.05l10.53-66.826h19.949l0.253,5.334c4.707-3.099,10.9041-6.451,19.697-6.451
	C205.077,115.344,209.172,121.297,209.172,130.228z"/>
</svg>
